[Header]
FileType HTR
DataType HTRS
FileVersion 1
NumSegments 64
NumFrames 3
DataFrameRate 24
EulerRotationOrder ZYX
CalibrationUnits mm
RotationUnits Degrees
GlobalAxisofGravity Y
BoneLengthAxis Y
ScaleFactor 1.0
[SegmentNames&Hierarchy]
Hips	GLOBAL
Spine	Hips
Spine1	Spine
Spine2	Spine1
Neck	Spine2
Head	Neck
LeftEye	Head
RightEye	Head
LeftShoulder	Spine2
LeftArm	LeftShoulder
LeftForeArm	LeftArm
LeftHand	LeftForeArm
LeftHandThumb1	LeftHand
LeftHandThumb2	LeftHandThumb1
LeftHandThumb3	LeftHandThumb2
LeftHandThumb4	LeftHandThumb3
LeftHandIndex1	LeftHand
LeftHandIndex2	LeftHandIndex1
LeftHandIndex3	LeftHandIndex2
LeftHandIndex4	LeftHandIndex3
LeftHandMiddle1	LeftHand
LeftHandMiddle2	LeftHandMiddle1
LeftHandMiddle3	LeftHandMiddle2
LeftHandMiddle4	LeftHandMiddle3
LeftHandRing1	LeftHand
LeftHandRing2	LeftHandRing1
LeftHandRing3	LeftHandRing2
LeftHandRing4	LeftHandRing3
LeftHandPinky1	LeftHand
LeftHandPinky2	LeftHandPinky1
LeftHandPinky3	LeftHandPinky2
LeftHandPinky4	LeftHandPinky3
RightShoulder	Spine2
RightArm	RightShoulder
RightForeArm	RightArm
RightHand	RightForeArm
RightHandPinky1	RightHand
RightHandPinky2	RightHandPinky1
RightHandPinky3	RightHandPinky2
RightHandPinky4	RightHandPinky3
RightHandRing1	RightHand
RightHandRing2	RightHandRing1
RightHandRing3	RightHandRing2
RightHandRing4	RightHandRing3
RightHandMiddle1	RightHand
RightHandMiddle2	RightHandMiddle1
RightHandMiddle3	RightHandMiddle2
RightHandMiddle4	RightHandMiddle3
RightHandIndex1	RightHand
RightHandIndex2	RightHandIndex1
RightHandIndex3	RightHandIndex2
RightHandIndex4	RightHandIndex3
RightHandThumb1	RightHand
RightHandThumb2	RightHandThumb1
RightHandThumb3	RightHandThumb2
RightHandThumb4	RightHandThumb3
LeftUpLeg	Hips
LeftLeg	LeftUpLeg
LeftFoot	LeftLeg
LeftToeBase	LeftFoot
RightUpLeg	Hips
RightLeg	RightUpLeg
RightFoot	RightLeg
RightToeBase	RightFoot
[BasePosition]
Hips	0	0	0	0	0	0	1
Spine	0	0	0	0	0	0	1
Spine1	0	0	0	0	0	0	1
Spine2	0	0	0	0	0	0	1
Neck	0	0	0	0	0	0	1
Head	0	0	0	0	0	0	1
LeftEye	0	0	0	0	0	0	1
RightEye	0	0	0	0	0	0	1
LeftShoulder	0	0	0	0	0	0	1
LeftArm	0	0	0	0	0	0	1
LeftForeArm	0	0	0	0	0	0	1
LeftHand	0	0	0	0	0	0	1
LeftHandThumb1	0	0	0	0	0	0	1
LeftHandThumb2	0	0	0	0	0	0	1
LeftHandThumb3	0	0	0	0	0	0	1
LeftHandThumb4	0	0	0	0	0	0	1
LeftHandIndex1	0	0	0	0	0	0	1
LeftHandIndex2	0	0	0	0	0	0	1
LeftHandIndex3	0	0	0	0	0	0	1
LeftHandIndex4	0	0	0	0	0	0	1
LeftHandMiddle1	0	0	0	0	0	0	1
LeftHandMiddle2	0	0	0	0	0	0	1
LeftHandMiddle3	0	0	0	0	0	0	1
LeftHandMiddle4	0	0	0	0	0	0	1
LeftHandRing1	0	0	0	0	0	0	1
LeftHandRing2	0	0	0	0	0	0	1
LeftHandRing3	0	0	0	0	0	0	1
LeftHandRing4	0	0	0	0	0	0	1
LeftHandPinky1	0	0	0	0	0	0	1
LeftHandPinky2	0	0	0	0	0	0	1
LeftHandPinky3	0	0	0	0	0	0	1
LeftHandPinky4	0	0	0	0	0	0	1
RightShoulder	0	0	0	0	0	0	1
RightArm	0	0	0	0	0	0	1
RightForeArm	0	0	0	0	0	0	1
RightHand	0	0	0	0	0	0	1
RightHandPinky1	0	0	0	0	0	0	1
RightHandPinky2	0	0	0	0	0	0	1
RightHandPinky3	0	0	0	0	0	0	1
RightHandPinky4	0	0	0	0	0	0	1
RightHandRing1	0	0	0	0	0	0	1
RightHandRing2	0	0	0	0	0	0	1
RightHandRing3	0	0	0	0	0	0	1
RightHandRing4	0	0	0	0	0	0	1
RightHandMiddle1	0	0	0	0	0	0	1
RightHandMiddle2	0	0	0	0	0	0	1
RightHandMiddle3	0	0	0	0	0	0	1
RightHandMiddle4	0	0	0	0	0	0	1
RightHandIndex1	0	0	0	0	0	0	1
RightHandIndex2	0	0	0	0	0	0	1
RightHandIndex3	0	0	0	0	0	0	1
RightHandIndex4	0	0	0	0	0	0	1
RightHandThumb1	0	0	0	0	0	0	1
RightHandThumb2	0	0	0	0	0	0	1
RightHandThumb3	0	0	0	0	0	0	1
RightHandThumb4	0	0	0	0	0	0	1
LeftUpLeg	0	0	0	0	0	0	1
LeftLeg	0	0	0	0	0	0	1
LeftFoot	0	0	0	0	0	0	1
LeftToeBase	0	0	0	0	0	0	1
RightUpLeg	0	0	0	0	0	0	1
RightLeg	0	0	0	0	0	0	1
RightFoot	0	0	0	0	0	0	1
RightToeBase	0	0	0	0	0	0	1
[Hips]
9	111.1642456	1008.600952	48.42127991	1.46554184	-24.09173775	-5.764015198	1.0
10	109.2789154	1009.447998	55.03572464	1.813125968	-27.28814888	-5.890310764	1.0
11	105.9902344	1010.438354	59.53754807	2.17375946	-30.48501778	-6.036167145	1.0
[Spine]
9	0	101.8159943	1.315000057	1.587256789	-6.563921452	3.674257994	1.0
10	0	101.8159943	1.315000057	1.704481959	-7.021449089	3.720423937	1.0
11	0	101.8159943	1.315000057	1.702860594	-7.04251194	3.497698069	1.0
[Spine1]
9	0	100.8349991	-10.00800037	0.6004078984	-6.888236046	5.858106136	1.0
10	0	100.8349991	-10.00800037	0.6700611115	-7.544581413	5.538005829	1.0
11	0	100.8349991	-10.00800037	0.7340331078	-7.735194683	5.042921543	1.0
[Spine2]
9	0	91	-13.73399925	0.8698913455	-6.422159195	5.836441994	1.0
10	0	91	-13.73399925	0.9236860275	-7.087845802	5.517866135	1.0
11	0	91	-13.73399925	0.9515719414	-7.288948059	5.02376461	1.0
[Neck]
9	0	166.7169952	-25.16200066	-0.2971949875	-1.70151794	1.220784783	1.0
10	0	166.7169952	-25.16200066	-0.2647287846	-2.528515339	1.662722945	1.0
11	0	166.7169952	-25.16200066	-0.1591355801	-3.481566668	1.998032808	1.0
[Head]
9	0	96.17900085	16.84999847	-4.708589554	3.1689713	-7.44679594	1.0
10	0	96.17900085	16.84999847	-5.466612339	2.020578384	-6.73074913	1.0
11	0	96.17900085	16.84999847	-5.740730762	-0.2192961574	-5.441946983	1.0
[LeftEye]
9	30.6760006	64.09500122	92.83599854	0	0	0	1.0
10	30.6760006	64.09500122	92.83599854	0	0	0	1.0
11	30.6760006	64.09500122	92.83599854	0	0	0	1.0
[RightEye]
9	-30.6760006	64.09500122	92.83499908	0	0	0	1.0
10	-30.6760006	64.09500122	92.83499908	0	0	0	1.0
11	-30.6760006	64.09500122	92.83499908	0	0	0	1.0
[LeftShoulder]
9	45.70400238	109.4599991	-26.28000069	4.721408367	-15.60788155	-3.830435514	1.0
10	45.70400238	109.4599991	-26.28000069	4.69406414	-15.85871124	-3.5386343	1.0
11	45.70400238	109.4599991	-26.28000069	4.69048214	-15.68282986	-3.44880414	1.0
[LeftArm]
9	105.923996	-5.24600029	-22.32099915	-5.994102001	11.25445747	-87.0803299	1.0
10	105.923996	-5.24600029	-22.32099915	-6.180489063	11.513978	-87.37422943	1.0
11	105.923996	-5.24600029	-22.32099915	-6.02738905	11.19470787	-87.21081543	1.0
[LeftForeArm]
9	278.414978	-0.0009999999311	0	6.131475857e-06	-10.0612154	-0.0002169209474	1.0
10	278.414978	-0.0009999999311	0	4.406925655e-06	-10.02684402	-0.0002063317079	1.0
11	278.414978	-0.0009999999311	0	1.576928071e-06	-10.55575657	-0.0002034591162	1.0
[LeftHand]
9	283.2879944	0	0	-25.76378822	5.297016621	-10.73107147	1.0
10	283.2879944	0	0	-25.68001556	5.301973343	-10.81283569	1.0
11	283.2879944	0	0	-25.9226017	4.321367264	-11.00489807	1.0
[LeftHandThumb1]
9	24.6609993	-15.75	26.8239994	18.60570717	-3.166084528	10.29301357	1.0
10	24.6609993	-15.75	26.8239994	18.48205948	-3.245005131	10.34538269	1.0
11	24.6609993	-15.75	26.8239994	18.27920341	-3.611147881	10.26409149	1.0
[LeftHandThumb2]
9	32.29800034	-18.64699936	18.64699936	-0.09188383818	32.2804451	-2.513139486	1.0
10	32.29800034	-18.64699936	18.64699936	-0.1127785593	32.37980652	-2.578860044	1.0
11	32.29800034	-18.64699936	18.64699936	-0.2790611982	32.61034393	-2.720781326	1.0
[LeftHandThumb3]
9	26.52600098	-15.31499958	15.31499958	2.126634598	9.4389925	-0.05086427927	1.0
10	26.52600098	-15.31499958	15.31499958	2.12567091	9.436030388	-0.05004843324	1.0
11	26.52600098	-15.31499958	15.31499958	2.122418404	9.425840378	-0.04732142761	1.0
[LeftHandThumb4]
9	19.54599953	-11.28499985	11.28499985	0	0	0	1.0
10	19.54599953	-11.28499985	11.28499985	0	0	0	1.0
11	19.54599953	-11.28499985	11.28499985	0	0	0	1.0
[LeftHandIndex1]
9	91.09299469	-5.170999527	22.60099792	-0.2089823186	4.761403561	-7.258446217	1.0
10	91.09299469	-5.170999527	22.60099792	-0.2326359451	4.746296883	-7.421462536	1.0
11	91.09299469	-5.170999527	22.60099792	-0.2671367526	4.77011013	-7.730887413	1.0
[LeftHandIndex2]
9	36.76399994	0	0	-0.6265363097	2.767304897	-20.53785324	1.0
10	36.76399994	0	0	-0.6273295879	2.76877737	-20.55429649	1.0
11	36.76399994	0	0	-0.6273905039	2.768906116	-20.55570602	1.0
[LeftHandIndex3]
9	28.83100128	0	0	-0.1091166958	0.8020690084	-10.13548756	1.0
10	28.83100128	0	0	-0.1094048843	0.8036909103	-10.15189838	1.0
11	28.83100128	0	0	-0.1094320863	0.8038276434	-10.15330696	1.0
[LeftHandIndex4]
9	23.92700005	0	0	0	0	0	1.0
10	23.92700005	0	0	0	0	0	1.0
11	23.92700005	0	0	0	0	0	1.0
[LeftHandMiddle1]
9	95.33399963	0	0	-1.448479056	8.61589241	-15.27220821	1.0
10	95.33399963	0	0	-1.469829202	8.614061356	-15.45167828	1.0
11	95.33399963	0	0	-1.505967855	8.644711494	-15.75167084	1.0
[LeftHandMiddle2]
9	36.98199844	0	0	-1.425210714	3.821578264	-33.39331818	1.0
10	36.98199844	0	0	-1.42655611	3.823034525	-33.41292191	1.0
11	36.98199844	0	0	-1.429754257	3.826496363	-33.4595108	1.0
[LeftHandMiddle3]
9	29.50900078	0	0	-0.1484557837	1.483237863	-12.23996449	1.0
10	29.50900078	0	0	-0.1488958895	1.485086799	-12.25909042	1.0
11	29.50900078	0	0	-0.1499694586	1.489602208	-12.30573368	1.0
[LeftHandMiddle4]
9	28.3390007	0	0	0	0	0	1.0
10	28.3390007	0	0	0	0	0	1.0
11	28.3390007	0	0	0	0	0	1.0
[LeftHandRing1]
9	91.04499817	-0.4390000105	-18.65100098	-2.961404562	11.60610199	-26.4610672	1.0
10	91.04499817	-0.4390000105	-18.65100098	-2.976548672	11.58576393	-26.58533669	1.0
11	91.04499817	-0.4390000105	-18.65100098	-3.008444548	11.55178833	-26.8433342	1.0
[LeftHandRing2]
9	31.54000092	0	0	-1.200789571	4.05973196	-40.25563049	1.0
10	31.54000092	0	0	-1.201744914	4.060952187	-40.27127075	1.0
11	31.54000092	0	0	-1.20203495	4.061323643	-40.27610779	1.0
[LeftHandRing3]
9	29.37700081	0	0	-0.09356188029	1.908833623	-19.39427376	1.0
10	29.37700081	0	0	-0.09390974045	1.910256982	-19.40900421	1.0
11	29.37700081	0	0	-0.09399436414	1.910574675	-19.41231537	1.0
[LeftHandRing4]
9	26.47500038	0	0	0	0	0	1.0
10	26.47500038	0	0	0	0	0	1.0
11	26.47500038	0	0	0	0	0	1.0
[LeftHandPinky1]
9	80.77799988	-4.887000084	-38.06099701	-5.156382561	16.32999802	-36.31632614	1.0
10	80.77799988	-4.887000084	-38.06099701	-5.164941788	16.25880814	-36.41923141	1.0
11	80.77799988	-4.887000084	-38.06099701	-5.189839363	16.11184311	-36.68271637	1.0
[LeftHandPinky2]
9	36	0	0	-1.943869352	3.815998554	-45.64028168	1.0
10	36	0	0	-1.943197966	3.815410852	-45.63130569	1.0
11	36	0	0	-1.943157434	3.815376759	-45.6306839	1.0
[LeftHandPinky3]
9	21.14200211	0	0	-0.5423773527	2.831700563	-20.50450516	1.0
10	21.14200211	0	0	-0.541998148	2.830892086	-20.4955616	1.0
11	21.14200211	0	0	-0.5419675112	2.830831528	-20.49494553	1.0
[LeftHandPinky4]
9	19.75699997	0	0	0	0	0	1.0
10	19.75699997	0	0	0	0	0	1.0
11	19.75699997	0	0	0	0	0	1.0
[RightShoulder]
9	-45.70000076	109.4620056	-26.28000069	5.187066555	3.063970566	7.446378708	1.0
10	-45.70000076	109.4620056	-26.28000069	5.118114948	3.34220171	7.184981823	1.0
11	-45.70000076	109.4620056	-26.28000069	5.062613487	3.608575821	6.980358124	1.0
[RightArm]
9	-105.9280014	-5.248000145	-22.32099915	-11.55557346	-2.18699193	65.05323792	1.0
10	-105.9280014	-5.248000145	-22.32099915	-12.29498672	-2.556231976	65.63529205	1.0
11	-105.9280014	-5.248000145	-22.32099915	-11.99411011	-3.061640978	66.5193634	1.0
[RightForeArm]
9	-278.414978	0	0	4.298568001e-06	25.94161415	1.508279865e-06	1.0
10	-278.414978	0	0	6.838912668e-06	25.89129448	3.298133606e-06	1.0
11	-278.414978	0	0	8.264887583e-06	24.42002869	1.099232668e-05	1.0
[RightHand]
9	-283.2879944	0	0.0009999999311	-13.63129234	6.383678436	1.903985143	1.0
10	-283.2879944	0	0.0009999999311	-13.71202469	6.35073328	1.873081684	1.0
11	-283.2879944	0	0.0009999999311	-12.64995289	5.132683277	3.524256706	1.0
[RightHandPinky1]
9	-80.76699829	-4.885000229	-38.06000137	-5.260870934	-16.0073185	37.39725113	1.0
10	-80.76699829	-4.885000229	-38.06000137	-5.258867264	-16.06570053	37.30638885	1.0
11	-80.76699829	-4.885000229	-38.06000137	-5.27794075	-16.12268066	37.37374496	1.0
[RightHandPinky2]
9	-36	0	0.0009999999311	-1.936198473	-3.808779478	45.5561676	1.0
10	-36	0	0.0009999999311	-1.936519146	-3.80905652	45.5604248	1.0
11	-36	0	0.0009999999311	-1.935455561	-3.808131218	45.54621506	1.0
[RightHandPinky3]
9	-21.14200211	0	0	-0.7605947852	0.06428580731	22.01757813	1.0
10	-21.14200211	0	0	-0.7607869506	0.06391087174	22.02181244	1.0
11	-21.14200211	0	0	-0.7601417303	0.06517569721	22.00766945	1.0
[RightHandPinky4]
9	-19.75699997	0	0	0	0	0	1.0
10	-19.75699997	0	0	0	0	0	1.0
11	-19.75699997	0	0	0	0	0	1.0
[RightHandRing1]
9	-91.03599548	-0.4390000105	-18.65100098	-3.033353806	-11.38339329	27.09809685	1.0
10	-91.03599548	-0.4390000105	-18.65100098	-3.024150133	-11.39981842	27.02124405	1.0
11	-91.03599548	-0.4390000105	-18.65100098	-3.033036232	-11.41137886	27.08564568	1.0
[RightHandRing2]
9	-31.54000092	0	0	-1.203258276	-4.06260252	40.29921341	1.0
10	-31.54000092	0	0	-1.202231646	-4.061288834	40.28236389	1.0
11	-31.54000092	0	0	-1.200662374	-4.059287071	40.25675964	1.0
[RightHandRing3]
9	-29.37700081	0	0	-0.1402892023	0.0809270069	17.90912247	1.0
10	-29.37700081	0	0	-0.139944315	0.0825182274	17.89275551	1.0
11	-29.37700081	0	0	-0.1394114792	0.08497694135	17.86749458	1.0
[RightHandRing4]
9	-26.47500038	0	0	0	0	0	1.0
10	-26.47500038	0	0	0	0	0	1.0
11	-26.47500038	0	0	0	0	0	1.0
[RightHandMiddle1]
9	-95.32500458	0	0	-1.529657125	-8.348229408	15.97461414	1.0
10	-95.32500458	0	0	-1.523215055	-8.406201363	15.91583633	1.0
11	-95.32500458	0	0	-1.535249472	-8.464004517	16.01223755	1.0
[RightHandMiddle2]
9	-36.98199844	0	0	-1.438645601	-3.835788488	33.5908699	1.0
10	-36.98199844	0	0	-1.436573267	-3.833560705	33.56075287	1.0
11	-36.98199844	0	0	-1.434699297	-3.831545353	33.53352356	1.0
[RightHandMiddle3]
9	-29.50900078	0	0	-0.258361876	-1.694192886	16.0669632	1.0
10	-29.50900078	0	0	-0.257507652	-1.691433787	16.03791046	1.0
11	-29.50900078	0	0	-0.2567353845	-1.688911796	16.01148224	1.0
[RightHandMiddle4]
9	-28.3390007	0	0.0009999999311	0	0	0	1.0
10	-28.3390007	0	0.0009999999311	0	0	0	1.0
11	-28.3390007	0	0.0009999999311	0	0	0	1.0
[RightHandIndex1]
9	-91.08300018	-5.167999744	22.60099792	-0.3708064258	-4.695949078	8.442687988	1.0
10	-91.08300018	-5.167999744	22.60099792	-0.344686389	-4.70315218	8.290032387	1.0
11	-91.08300018	-5.167999744	22.60099792	-0.3352477551	-4.741692543	8.348730087	1.0
[RightHandIndex2]
9	-36.76399994	0	0	-0.62566787	-2.765510321	20.5208168	1.0
10	-36.76399994	0	0	-0.6269049644	-2.767807484	20.54646683	1.0
11	-36.76399994	0	0	-0.6263114214	-2.766695499	20.53419876	1.0
[RightHandIndex3]
9	-28.83100128	0	0	-0.2372523844	-0.1523637772	13.79247475	1.0
10	-28.83100128	0	0	-0.2378637791	-0.1548621804	13.81806564	1.0
11	-28.83100128	0	0	-0.2375748307	-0.1536773443	13.80583191	1.0
[RightHandIndex4]
9	-23.92700005	0	0	0	0	0	1.0
10	-23.92700005	0	0	0	0	0	1.0
11	-23.92700005	0	0	0	0	0	1.0
[RightHandThumb1]
9	-24.64799881	-15.72700024	26.82600021	16.39497757	6.760035992	-10.87746048	1.0
10	-24.64799881	-15.72700024	26.82600021	16.60090828	6.436798096	-10.81432724	1.0
11	-24.64799881	-15.72700024	26.82600021	16.71240234	6.246948242	-10.75241852	1.0
[RightHandThumb2]
9	-32.29800034	-18.64699936	18.64699936	-0.4079940617	-33.25670624	2.419123888	1.0
10	-32.29800034	-18.64699936	18.64699936	-0.4097812176	-33.13152695	2.464472294	1.0
11	-32.29800034	-18.64699936	18.64699936	-0.4214239419	-33.12823486	2.532050848	1.0
[RightHandThumb3]
9	-26.52600098	-15.31399918	15.31399918	1.840740323	-8.504981041	-0.7597187757	1.0
10	-26.52600098	-15.31399918	15.31399918	1.841687679	-8.453040123	-0.6536268592	1.0
11	-26.52600098	-15.31399918	15.31399918	1.842666626	-8.41143322	-0.5557405353	1.0
[RightHandThumb4]
9	-19.54599953	-11.28499985	11.28499985	0	0	0	1.0
10	-19.54599953	-11.28499985	11.28499985	0	0	0	1.0
11	-19.54599953	-11.28499985	11.28499985	0	0	0	1.0
[LeftUpLeg]
9	82.07800293	-67.51699829	-15.99599934	-15.7681179	25.09192848	5.720676422	1.0
10	82.07800293	-67.51699829	-15.99599934	-14.85873222	26.24229813	5.40833807	1.0
11	82.07800293	-67.51699829	-15.99599934	-13.90411091	27.62329102	5.385721207	1.0
[LeftLeg]
9	0	-443.7049866	2.845999956	31.48413467	6.782362938	7.61103344	1.0
10	0	-443.7049866	2.845999956	30.90995216	6.388521194	8.299228668	1.0
11	0	-443.7049866	2.845999956	30.2650013	6.232297421	8.680241585	1.0
[LeftFoot]
9	0	-444.2789917	-29.8219986	-14.55916405	18.21871758	-10.13059998	1.0
10	0	-444.2789917	-29.8219986	-15.16728973	20.25398827	-11.50925636	1.0
11	0	-444.2789917	-29.8219986	-15.628088	22.08197403	-12.69558239	1.0
[LeftToeBase]
9	0	-87.28699493	107.1060028	-0.4769883752	-1.80883751e-06	1.186458348e-06	1.0
10	0	-87.28699493	107.1060028	-0.5676564574	3.178595989e-06	2.674049256e-06	1.0
11	0	-87.28699493	107.1060028	-0.6539305449	2.408153478e-06	1.68167719e-06	1.0
[RightUpLeg]
9	-82.07800293	-67.51699829	-15.99599934	-9.435965538	-1.614750743	-0.3981969357	1.0
10	-82.07800293	-67.51699829	-15.99599934	-9.648540497	-3.248913765	-0.5658376813	1.0
11	-82.07800293	-67.51699829	-15.99599934	-9.568611145	-6.675034523	-0.4391722679	1.0
[RightLeg]
9	0	-443.7049866	2.861999989	22.75216484	3.473522186	11.64070225	1.0
10	0	-443.7049866	2.861999989	22.39412117	4.258543491	12.76513481	1.0
11	0	-443.7049866	2.861999989	22.14175224	4.535861492	13.18187523	1.0
[RightFoot]
9	0	-444.2770081	-29.83799934	-11.90525436	-8.081030846	-3.919373751	1.0
10	0	-444.2770081	-29.83799934	-11.10310364	-12.66259384	-4.010410309	1.0
11	0	-444.2770081	-29.83799934	-10.38923454	-15.27915955	-4.718214035	1.0
[RightToeBase]
9	0	-87.28699493	107.1060028	-2.410121441	0.00057308533	-0.04115759209	1.0
10	0	-87.28699493	107.1060028	-2.308978081	-1.218148896e-06	-1.172109251e-06	1.0
11	0	-87.28699493	107.1060028	-0.8956786394	-0.003553704126	0.2546615303	1.0
[EndOfFile]
